<?xml version="1.0" encoding="UTF-8"?>
<svg version="1.1" xmlns="http://www.w3.org/2000/svg" width="979" height="624">
<path d="M0 0 C323.07 0 646.14 0 979 0 C979 205.92 979 411.84 979 624 C655.93 624 332.86 624 0 624 C0 418.08 0 212.16 0 0 Z " fill="#5CA0E5" transform="translate(0,0)"/>
<path d="M0 0 C3.96 0 7.92 0 12 0 C12.02505615 1.08531006 12.0501123 2.17062012 12.07592773 3.28881836 C12.16983755 7.301316 12.27009767 11.31363382 12.37231445 15.32592773 C12.41572573 17.06514288 12.45739612 18.80440235 12.49731445 20.54370117 C12.55486768 23.03838488 12.6186042 25.5328441 12.68359375 28.02734375 C12.70866249 29.2007859 12.70866249 29.2007859 12.73423767 30.39793396 C12.50648731 33.99871781 12.50648731 33.99871781 14 37 C14.08843793 39.44830426 14.11528752 41.86820599 14.09765625 44.31640625 C14.09553383 45.41298805 14.09553383 45.41298805 14.09336853 46.53172302 C14.08775408 48.87535632 14.07519922 51.21889539 14.0625 53.5625 C14.05748686 55.14778508 14.05292363 56.73307166 14.04882812 58.31835938 C14.03777997 62.2122761 14.02050572 66.10612205 14 70 C14.59246521 69.99111755 15.18493042 69.98223511 15.79534912 69.9730835 C21.95949662 69.88461704 28.12346393 69.82426874 34.28808594 69.78027344 C36.58894169 69.76015312 38.88974629 69.73285366 41.19042969 69.69824219 C44.49687317 69.64974388 47.80264085 69.62703522 51.109375 69.609375 C52.13867126 69.58872986 53.16796753 69.56808472 54.22845459 69.54681396 C61.21901278 69.54461554 61.21901278 69.54461554 64.65625 71.54882812 C66.4949204 74.90279811 66.50024003 77.88642083 66.390625 81.609375 C66.38496521 82.33618469 66.37930542 83.06299438 66.37347412 83.81182861 C66.35114553 86.12523245 66.30096048 88.4370672 66.25 90.75 C66.22993023 92.32159216 66.21168029 93.89320868 66.1953125 95.46484375 C66.15129293 99.31049717 66.08229375 103.15498289 66 107 C63.12037989 105.85901845 60.27499198 104.68201403 57.4375 103.4375 C46.89146188 99.0273386 32.53384716 99.17827577 21.8125 103 C9.67950344 108.58777073 -0.12576459 118.47945217 -5 131 C-5.66 133.31 -6.32 135.62 -7 138 C-15.91 138 -24.82 138 -34 138 C-34.556875 135.586875 -35.11375 133.17375 -35.6875 130.6875 C-39.88107252 113.64938732 -48.34743137 100.09307062 -63 90 C-77.4308031 81.36748061 -95.76491678 77.83395101 -112.29296875 81.90625 C-119.12010763 83.93109027 -125.16282877 86.91118124 -130.94921875 91.05859375 C-133 92 -133 92 -135.20703125 91.22265625 C-137 90 -137 90 -138 89 C-138.24070586 83.34341227 -136.33409288 80.86470559 -132.5625 76.6875 C-130.40471832 74.4258123 -128.21017016 72.21017016 -126 70 C-125.52536545 68.07839089 -125.52536545 68.07839089 -125.32983398 65.8449707 C-125.23310898 64.98680252 -125.13638397 64.12863434 -125.03672791 63.24446106 C-124.94081863 62.31429672 -124.84490936 61.38413239 -124.74609375 60.42578125 C-124.64031509 59.46858688 -124.53453644 58.51139252 -124.42555237 57.52519226 C-124.08797716 54.4551271 -123.76243856 51.38392595 -123.4375 48.3125 C-123.10638467 45.25925548 -122.77284007 42.20628485 -122.43873596 39.15336609 C-122.2316174 37.25258543 -122.02670744 35.35156242 -121.82432556 33.45027161 C-121.73075272 32.57634262 -121.63717987 31.70241364 -121.54077148 30.80200195 C-121.46020004 30.04192337 -121.3796286 29.28184479 -121.2966156 28.49873352 C-120.9199214 25.32540607 -120.45192711 22.16348977 -120 19 C-89.97 19 -59.94 19 -29 19 C-26.74947296 25.75158112 -26.74947296 25.75158112 -26.13037109 29.27368164 C-25.92037979 30.45003929 -25.92037979 30.45003929 -25.70614624 31.65016174 C-25.56335236 32.47845993 -25.42055847 33.30675812 -25.2734375 34.16015625 C-25.12089508 35.02764999 -24.96835266 35.89514374 -24.81118774 36.78892517 C-24.49133769 38.61483086 -24.1737829 40.44113995 -23.85839844 42.26782227 C-23.375777 45.05800792 -22.88371284 47.84641282 -22.390625 50.63476562 C-22.08016252 52.41396371 -21.77024799 54.19325753 -21.4609375 55.97265625 C-21.31409515 56.80297867 -21.16725281 57.63330109 -21.01596069 58.48878479 C-20.88227081 59.26987106 -20.74858093 60.05095734 -20.61083984 60.85571289 C-20.49251801 61.53710831 -20.37419617 62.21850372 -20.25228882 62.92054749 C-19.96788857 65.26467362 -20 67.63868451 -20 70 C-12.08 70 -4.16 70 4 70 C4 59.11 4 48.22 4 37 C4.99 36.67 5.98 36.34 7 36 C7 25.77 7 15.54 7 5 C4.69 5 2.38 5 0 5 C0 3.35 0 1.7 0 0 Z " fill="#FCFDFE" transform="translate(519,141)"/>
<path d="M0 0 C4.29 0 8.58 0 13 0 C13.495 2.475 13.495 2.475 14 5 C15.91583647 5.1958009 17.83272539 5.38132214 19.75 5.5625 C20.81734375 5.66691406 21.8846875 5.77132812 22.984375 5.87890625 C25.88188763 6.15849029 25.88188763 6.15849029 28.09375 5.375 C30.92860132 4.81732433 32.32686565 5.97649252 34.75 7.4375 C35.54921875 7.91058594 36.3484375 8.38367188 37.171875 8.87109375 C37.77515625 9.24363281 38.3784375 9.61617187 39 10 C38.67 11.98 38.34 13.96 38 16 C38.5775 16.2475 39.155 16.495 39.75 16.75 C42 18 42 18 43.9375 20.125 C44.618125 20.74375 45.29875 21.3625 46 22 C46.79664063 21.94070312 47.59328125 21.88140625 48.4140625 21.8203125 C51 22 51 22 52.87109375 24.046875 C53.38800781 24.93890625 53.90492188 25.8309375 54.4375 26.75 C55.23994141 28.07257813 55.23994141 28.07257813 56.05859375 29.421875 C57 32 57 32 56.10546875 33.9375 C55.74066406 34.618125 55.37585938 35.29875 55 36 C55.18934278 39.06830515 55.18934278 39.06830515 55.875 42.25 C56.18050781 43.86648438 56.18050781 43.86648438 56.4921875 45.515625 C56.65976562 46.33546875 56.82734375 47.1553125 57 48 C58.32 48 59.64 48 61 48 C61 52.62 61 57.24 61 62 C59.68 62.33 58.36 62.66 57 63 C56.60856606 64.74639757 56.23745713 66.49735918 55.875 68.25 C55.66617188 69.22453125 55.45734375 70.1990625 55.2421875 71.203125 C54.75005787 73.97218548 54.75005787 73.97218548 56.078125 76.06640625 C57 78 57 78 56.2421875 80.32421875 C55.79101562 81.10410156 55.33984375 81.88398438 54.875 82.6875 C54.22144531 83.86892578 54.22144531 83.86892578 53.5546875 85.07421875 C51.74139415 87.32033337 50.80004667 87.60562723 48 88 C43.76938773 89.501185 41.50188201 92.35440049 39 96 C39.29528293 98.65605732 39.29528293 98.65605732 40 101 C31.8888925 106.54163137 31.8888925 106.54163137 26.375 105.6875 C25.64152344 105.54828125 24.90804687 105.4090625 24.15234375 105.265625 C20.73789153 104.8442407 18.20070388 105.8422986 15 107 C14.505 108.98 14.505 108.98 14 111 C9.38 111 4.76 111 0 111 C-0.33 109.68 -0.66 108.36 -1 107 C-5.36223017 105.67575156 -8.51188754 104.72576162 -13 105.6875 C-17.38047159 106.4421555 -19.84302102 104.81090578 -23.43359375 102.421875 C-25 101 -25 101 -26 98 C-26 97.01 -26 96.02 -26 95 C-27.97956942 93.30911778 -29.97945196 91.64169528 -32 90 C-32 89.34 -32 88.68 -32 88 C-32.86625 88.185625 -33.7325 88.37125 -34.625 88.5625 C-38.68153204 87.88641133 -39.15005516 87.10752781 -41.5 83.875 C-43.01953125 81.36328125 -43.01953125 81.36328125 -44 79 C-43.1875 76.0625 -43.1875 76.0625 -42 73 C-42.51871589 69.47819213 -43.36916882 66.17042705 -45 63 C-46.32 62.34 -47.64 61.68 -49 61 C-49 57.04 -49 53.08 -49 49 C-46.525 48.505 -46.525 48.505 -44 48 C-43.77788884 46.06403108 -43.57277008 44.12610672 -43.375 42.1875 C-43.25898438 41.10855469 -43.14296875 40.02960938 -43.0234375 38.91796875 C-42.72539844 35.80375668 -42.72539844 35.80375668 -45 33 C-40.18254441 23.43567426 -40.18254441 23.43567426 -35.4375 21.6875 C-33.7359375 21.3471875 -33.7359375 21.3471875 -32 21 C-28.99820559 18.83255116 -28.99820559 18.83255116 -27 16 C-27.03738281 15.18917969 -27.07476562 14.37835938 -27.11328125 13.54296875 C-27 11 -27 11 -25.3828125 9.1640625 C-20.01884784 5.50765753 -16.78033232 4.49186268 -10.375 5.6328125 C-7.03546944 6.1491215 -4.29611826 5.6448927 -1 5 C-0.67 3.35 -0.34 1.7 0 0 Z " fill="#FCFDFE" transform="translate(416,227)"/>
<path d="M0 0 C3.96 0 7.92 0 12 0 C12.495 1.485 12.495 1.485 13 3 C14.45736087 3.19491452 15.91594593 3.38069358 17.375 3.5625 C18.59316406 3.71912109 18.59316406 3.71912109 19.8359375 3.87890625 C22.04899186 4.18237328 22.04899186 4.18237328 24 3 C26.94475044 4.26461675 29.54041018 5.95034182 32 8 C32.6875 10.5625 32.6875 10.5625 33 13 C35.22487879 15.39663957 35.22487879 15.39663957 38 17 C39.32 17 40.64 17 42 17 C46.08451472 23.18865867 46.08451472 23.18865867 45.6875 27 C45.460625 27.99 45.23375 28.98 45 30 C45.2644354 32.34214207 45.58244638 34.68025766 46 37 C47.98 37.495 47.98 37.495 50 38 C50.08090971 39.62418745 50.13914995 41.24951745 50.1875 42.875 C50.23970703 44.23238281 50.23970703 44.23238281 50.29296875 45.6171875 C50.19628906 46.40351563 50.09960938 47.18984375 50 48 C49.01 48.66 48.02 49.32 47 50 C44.99158758 53.41430111 44.98256435 54.90172635 45.6875 58.875 C46.24302137 62.3192325 45.80692354 64.02466173 43.875 66.9375 C41.45532887 69.91349441 39.82112281 70.51011246 36 71 C33.56211136 73.007673 32.10856183 74.80647674 30.5625 77.5625 C28.65276579 80.54168537 27.27645992 81.65963003 24 83 C21.65639085 82.74889902 19.32031805 82.41434251 17 82 C14.18762459 82.35974895 14.18762459 82.35974895 12 83 C11.505 84.485 11.505 84.485 11 86 C7.37 86 3.74 86 0 86 C-0.33 85.01 -0.66 84.02 -1 83 C-2.43640171 82.80426392 -3.87419504 82.61872184 -5.3125 82.4375 C-6.11300781 82.33308594 -6.91351562 82.22867188 -7.73828125 82.12109375 C-10.16817116 81.85244822 -10.16817116 81.85244822 -13 83 C-15.75355099 81.7923022 -17.74023773 80.88783132 -20 79 C-21.125 76 -21.125 76 -22 73 C-24.31234605 70.74850516 -25.93394459 69.219482 -29.125 68.5625 C-31 68 -31 68 -32.8125 65.875 C-34.34503057 62.16466282 -33.67592282 59.92035237 -33 56 C-33.2602896 53.65739357 -33.57420028 51.3182429 -34 49 C-35.32 48.67 -36.64 48.34 -38 48 C-38 44.37 -38 40.74 -38 37 C-36.515 36.505 -36.515 36.505 -35 36 C-34.12110599 34.23641201 -34.12110599 34.23641201 -33.6875 32.125 C-33.41486328 31.07699219 -33.41486328 31.07699219 -33.13671875 30.0078125 C-32.77312333 27.67954138 -32.77312333 27.67954138 -35 25 C-31.02065178 17.42867375 -31.02065178 17.42867375 -26.875 15.6875 C-25.451875 15.3471875 -25.451875 15.3471875 -24 15 C-22.12359581 13.79081118 -22.12359581 13.79081118 -21 12 C-20.9175 11.195625 -20.835 10.39125 -20.75 9.5625 C-20 7 -20 7 -16.875 4.625 C-12.98319336 2.6273651 -10.27145816 3.14570837 -6 4 C-2.69285416 3.63112347 -2.69285416 3.63112347 0 3 C0 2.01 0 1.02 0 0 Z " fill="#FCFDFE" transform="translate(555,248)"/>
<path d="M0 0 C2.18857905 1.76229999 4.00086314 3.28688253 5.26953125 5.82421875 C9.04356483 4.08041306 12.03635705 1.74681299 15.26953125 -0.8359375 C20.56163439 -4.38123316 27.62395718 -3.76759522 33.67578125 -2.78515625 C39.97077219 -1.10361758 43.70947063 2.43975034 47.26953125 7.82421875 C48.92881639 11.38587518 49.51603039 14.15464209 49.49658203 18.07348633 C49.49643097 19.09416702 49.49627991 20.11484772 49.49612427 21.16645813 C49.4858017 22.25621445 49.47547913 23.34597076 49.46484375 24.46875 C49.46201385 25.59367355 49.45918396 26.71859711 49.45626831 27.87760925 C49.44508961 31.46408811 49.41998888 35.0503156 49.39453125 38.63671875 C49.38449848 41.07095993 49.37537315 43.50520503 49.3671875 45.93945312 C49.34515777 51.90113825 49.31064343 57.86263591 49.26953125 63.82421875 C43.32953125 63.82421875 37.38953125 63.82421875 31.26953125 63.82421875 C31.23980225 61.7654248 31.23980225 61.7654248 31.20947266 59.66503906 C31.1334078 54.57338089 31.04469146 49.48200815 30.95214844 44.390625 C30.91386239 42.18690628 30.87900888 39.98312514 30.84765625 37.77929688 C30.80199795 34.61175223 30.74400423 31.44463713 30.68359375 28.27734375 C30.67204254 27.29179504 30.66049133 26.30624634 30.64859009 25.29083252 C30.6287204 24.37018005 30.60885071 23.44952759 30.58837891 22.50097656 C30.57505524 21.69267395 30.56173157 20.88437134 30.54800415 20.05157471 C30.23658388 17.56069036 29.60074184 15.94549918 28.26953125 13.82421875 C24.59433098 11.78244082 21.42951585 11.39088702 17.26953125 11.82421875 C13.65486847 13.25327148 12.50500738 14.38553081 10.65698242 17.82836914 C8.80882988 22.39176046 8.79306966 26.82562896 8.7578125 31.6953125 C8.7398613 32.61764175 8.7219101 33.53997101 8.70341492 34.49024963 C8.64956389 37.41402723 8.6154974 40.33764395 8.58203125 43.26171875 C8.54883591 45.25327747 8.51434421 47.24481504 8.47851562 49.23632812 C8.39142943 54.09897826 8.33114587 58.96091339 8.26953125 63.82421875 C2.32953125 63.82421875 -3.61046875 63.82421875 -9.73046875 63.82421875 C-9.73981445 62.42139648 -9.74916016 61.01857422 -9.75878906 59.57324219 C-9.79865439 54.36963113 -9.86440412 49.16661344 -9.93798828 43.96337891 C-9.96621786 41.71117779 -9.98742245 39.45887723 -10.00146484 37.20654297 C-10.02286635 33.96920792 -10.0695037 30.73307101 -10.12109375 27.49609375 C-10.12232239 26.48867126 -10.12355103 25.48124878 -10.12481689 24.44329834 C-10.15648542 18.95317555 -10.15648542 18.95317555 -12.64355469 14.21972656 C-16.51064519 11.63382468 -19.04488086 11.42713503 -23.73046875 11.82421875 C-27.26954439 14.02631026 -29.15464929 16.00568385 -30.73046875 19.82421875 C-31.05281585 22.00125604 -31.05281585 22.00125604 -31.04931641 24.31738281 C-31.0691861 25.19799377 -31.08905579 26.07860474 -31.10952759 26.98590088 C-31.1268544 28.3986026 -31.1268544 28.3986026 -31.14453125 29.83984375 C-31.1638974 30.81080994 -31.18326355 31.78177612 -31.20321655 32.78216553 C-31.26293384 35.87942761 -31.30936655 38.97672701 -31.35546875 42.07421875 C-31.39365573 44.17579734 -31.43270789 46.2773604 -31.47265625 48.37890625 C-31.56862906 53.52721743 -31.65268935 58.67560187 -31.73046875 63.82421875 C-37.67046875 63.82421875 -43.61046875 63.82421875 -49.73046875 63.82421875 C-49.73046875 42.37421875 -49.73046875 20.92421875 -49.73046875 -1.17578125 C-44.12046875 -1.17578125 -38.51046875 -1.17578125 -32.73046875 -1.17578125 C-32.40046875 0.80421875 -32.07046875 2.78421875 -31.73046875 4.82421875 C-31.055 4.33050781 -30.37953125 3.83679688 -29.68359375 3.328125 C-28.7915625 2.68746094 -27.89953125 2.04679687 -26.98046875 1.38671875 C-26.09875 0.74863281 -25.21703125 0.11054688 -24.30859375 -0.546875 C-17.47039004 -4.86737643 -6.68990808 -4.54551317 0 0 Z " fill="#CEF36A" transform="translate(433.73046875,398.17578125)"/>
<path d="M0 0 C23.43 0 46.86 0 71 0 C71 17.79742432 71 17.79742432 67.19140625 21.82421875 C66.65386719 22.31535156 66.11632812 22.80648438 65.5625 23.3125 C64.44798086 24.46364653 63.33470971 25.6160026 62.22265625 26.76953125 C61.67109863 27.31561035 61.11954102 27.86168945 60.55126953 28.42431641 C58.3608594 30.64919947 56.43830565 33.05480779 54.5 35.5 C51.06791054 39.72793629 47.55422806 43.8750444 44 48 C37.0105901 56.12169209 30.23510056 64.27085921 24 73 C39.84 73 55.68 73 72 73 C72 78.61 72 84.22 72 90 C46.92 90 21.84 90 -4 90 C-4 72.20255416 -4 72.20255416 -0.19116211 68.17553711 C0.34629639 67.68448486 0.88375488 67.19343262 1.4375 66.6875 C2.55071429 65.53765283 3.66268301 64.38659852 4.7734375 63.234375 C5.32483398 62.68845703 5.87623047 62.14253906 6.44433594 61.58007812 C8.65650351 59.33319355 10.6018111 56.90440313 12.5625 54.4375 C15.82778226 50.41642004 19.14554512 46.44651964 22.5 42.5 C26.67111672 37.59233431 30.77681844 32.63711767 34.83203125 27.6328125 C37.50810496 24.38295001 40.26025514 21.196369 43 18 C28.81 17.67 14.62 17.34 0 17 C0 11.39 0 5.78 0 0 Z " fill="#CEF36A" transform="translate(642,372)"/>
<path d="M0 0 C3.47711914 2.96827244 6.15806502 5.78053454 6.94198608 10.44598389 C7.10394451 13.15531565 7.14217039 15.84051754 7.13671875 18.5546875 C7.15088333 19.54824249 7.16504791 20.54179749 7.17964172 21.56546021 C7.22143541 24.73125049 7.23675 27.89647323 7.25 31.0625 C7.27917949 34.2211191 7.31388867 37.37959899 7.35249329 40.53811646 C7.37474354 42.49921369 7.39070532 44.46039588 7.39933777 46.42160034 C7.40637222 47.32258453 7.41340668 48.22356873 7.4206543 49.15185547 C7.42413376 49.93317841 7.42761322 50.71450134 7.43119812 51.51950073 C7.60697026 55.09111708 8.11895937 58.63917492 8.5625 62.1875 C2.6225 62.1875 -3.3175 62.1875 -9.4375 62.1875 C-10.0975 60.5375 -10.7575 58.8875 -11.4375 57.1875 C-12.05625 57.785625 -12.675 58.38375 -13.3125 59 C-21.36550022 64.63710015 -31.19962918 65.44518795 -40.73046875 63.7890625 C-46.50387004 62.06932595 -50.06244467 58.03975346 -53.4375 53.1875 C-55.31792493 47.5462252 -55.217965 41.40566369 -53.25 35.8125 C-48.69848302 29.22064783 -43.71758099 26.16852919 -35.90014648 24.71606445 C-32.25671831 24.20645903 -28.60659679 23.78433788 -24.95117188 23.37109375 C-18.20165455 22.59486632 -18.20165455 22.59486632 -12.4375 19.1875 C-11.92512709 15.60088965 -11.61472517 13.30946568 -13.8125 10.3125 C-18.06092503 7.37128267 -22.42481671 7.76122457 -27.4375 8.1875 C-30.47574575 9.10770732 -30.47574575 9.10770732 -32.4375 11.1875 C-33.0975 13.1675 -33.7575 15.1475 -34.4375 17.1875 C-40.3775 17.1875 -46.3175 17.1875 -52.4375 17.1875 C-51.21764184 7.42863475 -51.21764184 7.42863475 -47.4375 3.1875 C-33.60946981 -7.0427949 -15.25352842 -8.04276953 0 0 Z " fill="#CFF369" transform="translate(621.4375,399.8125)"/>
<path d="M0 0 C3.50205404 2.98955833 6.16760377 5.78976378 6.94198608 10.4916687 C7.10409405 13.27024455 7.14216587 16.02528978 7.13671875 18.80859375 C7.15088333 19.82671646 7.16504791 20.84483917 7.17964172 21.89381409 C7.22144506 25.13765053 7.23675498 28.38093258 7.25 31.625 C7.27915226 34.86523709 7.31382217 38.10533726 7.35249329 41.34547424 C7.37479501 43.35773017 7.39072623 45.37006995 7.39933777 47.38243103 C7.40637222 48.30351151 7.41340668 49.22459198 7.4206543 50.17358398 C7.42413376 50.97489243 7.42761322 51.77620087 7.43119812 52.60179138 C7.59436756 55.81506308 8.10748925 59.00242472 8.5625 62.1875 C2.6225 62.1875 -3.3175 62.1875 -9.4375 62.1875 C-9.7675 60.5375 -10.0975 58.8875 -10.4375 57.1875 C-11.00597656 57.52523437 -11.57445312 57.86296875 -12.16015625 58.2109375 C-21.28177809 63.47985429 -30.51025136 66.28553874 -41.03515625 63.5 C-47.21997543 61.02194223 -50.40170219 57.6774391 -53.75 51.9375 C-55.15426232 46.3204507 -55.53377037 40.54193097 -52.75 35.3125 C-47.8090113 28.63548825 -41.63077708 25.55515972 -33.5546875 24.30859375 C-31.80859239 24.07096727 -30.0611221 23.8432549 -28.3125 23.625 C-19.75523284 23.00872744 -19.75523284 23.00872744 -12.4375 19.1875 C-12.15440083 16.26214189 -11.95771725 14.03192628 -12.4375 11.1875 C-14.75338413 8.71722359 -16.52854222 8.27707419 -19.85546875 7.94921875 C-26.01504193 7.67840632 -26.01504193 7.67840632 -31.4375 10.1875 C-32.4275 12.4975 -33.4175 14.8075 -34.4375 17.1875 C-40.3775 17.1875 -46.3175 17.1875 -52.4375 17.1875 C-51.39408856 9.76768534 -49.36095168 4.97390886 -43.4375 0.1875 C-40.20075246 -1.532799 -36.94769284 -2.77178956 -33.4375 -3.8125 C-32.82390625 -4.00457031 -32.2103125 -4.19664062 -31.578125 -4.39453125 C-20.95305112 -6.46913509 -9.53931888 -5.02982268 0 0 Z " fill="#CFF36A" transform="translate(313.4375,399.8125)"/>
<path d="M0 0 C20.79 0 41.58 0 63 0 C63 5.61 63 11.22 63 17 C48.81 17 34.62 17 20 17 C20 23.93 20 30.86 20 38 C32.21 38 44.42 38 57 38 C57 42.95 57 47.9 57 53 C44.79 53 32.58 53 20 53 C20 65.21 20 77.42 20 90 C13.4 90 6.8 90 0 90 C0 60.3 0 30.6 0 0 Z " fill="#CFF369" transform="translate(189,372)"/>
<path d="M0 0 C9.3782491 5.38887384 13.8936156 13.15740929 17.27734375 23.30859375 C17.27734375 27.59859375 17.27734375 31.88859375 17.27734375 36.30859375 C1.76734375 36.30859375 -13.74265625 36.30859375 -29.72265625 36.30859375 C-27.82946456 44.93797848 -27.82946456 44.93797848 -22.72265625 50.30859375 C-16.99977436 52.11001482 -10.89598859 52.09889642 -5.28515625 50.05859375 C-2.64269942 48.53757613 -2.64269942 48.53757613 -1.57421875 46.21484375 C0.27734375 44.30859375 0.27734375 44.30859375 4.0703125 43.91796875 C5.53566606 43.94449099 7.00075926 43.99210258 8.46484375 44.05859375 C9.21443359 44.07664062 9.96402344 44.0946875 10.73632812 44.11328125 C12.58388085 44.16035266 14.43077534 44.23209609 16.27734375 44.30859375 C14.02732466 52.04303436 9.94564774 58.18494917 3.15234375 62.73046875 C-6.45955957 67.75487276 -17.47139021 67.28709982 -27.72265625 64.30859375 C-36.6023378 60.60116467 -41.87620225 54.58095846 -45.81640625 45.8984375 C-49.1912855 36.2894063 -48.86085714 26.19417083 -44.9921875 16.81640625 C-40.27337276 7.49493222 -33.70648856 2.13141664 -24.04296875 -1.703125 C-15.87664861 -4.13380617 -7.71830367 -3.61521841 0 0 Z " fill="#CEF36A" transform="translate(541.72265625,397.69140625)"/>
<path d="M0 0 C6.6 0 13.2 0 20 0 C21.85549397 5.64039583 23.70828378 11.28153185 25.55419922 16.92504883 C26.18314443 18.84516628 26.81367067 20.7647666 27.44580078 22.68383789 C28.35343603 25.44022783 29.25539408 28.19841937 30.15625 30.95703125 C30.44060913 31.81649857 30.72496826 32.67596588 31.01794434 33.56147766 C31.27821411 34.36208115 31.53848389 35.16268463 31.80664062 35.98754883 C32.03758423 36.6914827 32.26852783 37.39541656 32.50646973 38.12068176 C33 40 33 40 33 43 C33.66 43 34.32 43 35 43 C35.2371875 41.79601562 35.474375 40.59203125 35.71875 39.3515625 C37.15959137 32.87031304 39.35552939 26.65083094 41.5 20.375 C42.30345361 18.00827724 43.10557754 15.64110258 43.90625 13.2734375 C44.26009766 12.23622559 44.61394531 11.19901367 44.97851562 10.13037109 C46.07165064 6.78042435 47.03194077 3.3882073 48 0 C54.27 0 60.54 0 67 0 C61.77732191 15.11334985 56.31834057 30.12703112 50.71948242 45.10498047 C49.53287362 48.28048515 48.35555525 51.45935755 47.18002033 54.63897514 C46.0394436 57.71753635 44.8881072 60.79207129 43.73828125 63.8671875 C43.32153641 64.99841034 42.90479156 66.12963318 42.47541809 67.2951355 C39.61832618 74.8856509 37.04589315 81.41197655 30 86 C24.5337817 87.93652457 19.77011623 88.25216197 14.0625 88.125 C13.28326172 88.11597656 12.50402344 88.10695313 11.70117188 88.09765625 C9.80064553 88.07433691 7.90027992 88.03847586 6 88 C6 83.05 6 78.1 6 73 C9.54817708 72.86979167 13.09635417 72.73958333 16.64453125 72.609375 C19.98967843 72.29357046 19.98967843 72.29357046 21.94921875 70.328125 C24.25312796 65.22355293 22.7805165 60.73057288 20.91746521 55.75827026 C20.46331993 54.59208664 20.46331993 54.59208664 20 53.40234375 C19.68825333 52.57864288 19.37650665 51.75494202 19.05531311 50.90628052 C18.04612338 48.24639308 17.0232143 45.59201999 16 42.9375 C15.30824879 41.12136048 14.61741289 39.30487206 13.92749023 37.48803711 C12.25774044 33.0970983 10.57757667 28.71025048 8.89276123 24.32507324 C7.28282977 20.13222926 5.68332388 15.93541994 4.08398438 11.73852539 C3.42021591 9.99962336 2.75370162 8.26176609 2.08398438 6.52514648 C0 1.10548757 0 1.10548757 0 0 Z " fill="#CFF36A" transform="translate(716,397)"/>
<path d="M0 0 C7.35823871 3.37866739 11.88879044 8.53012197 16.03515625 15.3515625 C18.1229416 22.84302757 18.34294313 30.35776889 15.09765625 37.5390625 C11.31899238 44.08519849 5.73916382 49.41982441 -1.5703125 51.7265625 C-8.88267876 53.09839671 -16.59542209 53.42651945 -23.12890625 49.484375 C-29.32371235 44.87238279 -33.97058929 39.79909205 -35.90234375 32.1640625 C-36.68252686 24.85871157 -36.57779699 18.59610568 -32.90234375 12.1640625 C-32.38671875 11.1534375 -31.87109375 10.1428125 -31.33984375 9.1015625 C-23.54818547 -0.28838465 -11.61716546 -3.34599382 0 0 Z " fill="#5EA1E5" transform="translate(431.90234375,256.8359375)"/>
<path d="M0 0 C1.00675781 0.00386719 2.01351563 0.00773438 3.05078125 0.01171875 C4.61892578 0.04845703 4.61892578 0.04845703 6.21875 0.0859375 C7.26417969 0.08722656 8.30960937 0.08851563 9.38671875 0.08984375 C18.40766391 0.1937983 18.40766391 0.1937983 21.71875 2.4609375 C23.32422075 5.19414423 24.05805248 7.59471614 24.49658203 10.71948242 C24.61655548 11.55102341 24.73652893 12.38256439 24.86013794 13.23930359 C25.0415181 14.57684441 25.0415181 14.57684441 25.2265625 15.94140625 C25.42208206 17.33254387 25.42208206 17.33254387 25.62155151 18.75178528 C25.89551604 20.71400959 26.16594943 22.6767297 26.43310547 24.63989258 C26.84006242 27.6214208 27.26096747 30.60073545 27.68359375 33.58007812 C27.94876052 35.49207066 28.21310947 37.40417683 28.4765625 39.31640625 C28.66401535 40.63876534 28.66401535 40.63876534 28.85525513 41.98783875 C30.73586409 56.00609823 30.73586409 56.00609823 28.6796875 60.96875 C24.36204953 64.25428327 18.00653136 63.61427726 12.83007812 62.97705078 C6.71462568 61.48213098 2.18506508 56.62909258 -2.28125 52.4609375 C-3.37912415 51.57483767 -4.48063285 50.6932199 -5.5859375 49.81640625 C-8.28125 47.4609375 -8.28125 47.4609375 -9.28125 44.4609375 C-9.41460162 41.48581698 -9.49357121 38.53493757 -9.51953125 35.55859375 C-9.527603 34.68448349 -9.53567474 33.81037323 -9.54399109 32.90977478 C-9.55781523 31.0613706 -9.56854485 29.21294107 -9.57641602 27.36450195 C-9.5936646 24.53743399 -9.63756869 21.711525 -9.68164062 18.88476562 C-9.69176486 17.08855026 -9.7002818 15.29232497 -9.70703125 13.49609375 C-9.72453934 12.65119888 -9.74204742 11.80630402 -9.76008606 10.93580627 C-9.74620161 7.18253586 -9.70854018 5.09962841 -7.5847168 1.92504883 C-4.82158474 0.16876871 -3.25865467 -0.02919736 0 0 Z " fill="#60A2E6" transform="translate(462.28125,168.5390625)"/>
<path d="M0 0 C4.95805687 3.72430784 7.85705839 8.41012003 9.6796875 14.26171875 C10.55159787 21.36459831 10.08182579 27.44942474 5.6796875 33.26171875 C0.38952321 38.85007601 -4.61074815 42.48176374 -12.5078125 42.76171875 C-18.9517945 42.63127377 -23.39592852 40.31500231 -28.3203125 36.26171875 C-33.66185806 30.54400801 -35.88729244 24.68486802 -35.69140625 16.953125 C-34.75863696 10.18809301 -31.60659193 4.88826283 -26.2578125 0.69921875 C-18.81808643 -4.50122344 -7.76670274 -4.59234498 0 0 Z " fill="#63A4E6" transform="translate(573.3203125,271.73828125)"/>
<path d="M0 0 C0.69891357 0.00091644 1.39782715 0.00183289 2.11791992 0.0027771 C3.59398194 0.00881269 5.07003173 0.02455786 6.54589844 0.04931641 C8.80449579 0.08580818 11.06145123 0.09033588 13.3203125 0.08984375 C24.36942518 0.16555429 24.36942518 0.16555429 27.8125 2.4609375 C28.11678811 5.1920668 28.23255639 7.69267609 28.2109375 10.42578125 C28.21380768 11.21489395 28.21667786 12.00400665 28.21963501 12.81703186 C28.221678 14.48732215 28.21613169 16.15763623 28.20361328 17.82788086 C28.1875833 20.38514799 28.20344202 22.94082956 28.22265625 25.49804688 C28.22067344 27.11979516 28.21682898 28.74154246 28.2109375 30.36328125 C28.22004654 31.51182838 28.22004654 31.51182838 28.2293396 32.68357849 C28.19138685 35.5494151 28.11965863 37.88729228 26.75048828 40.44433594 C23.73603839 42.02561199 20.72735844 41.86810572 17.40625 41.82421875 C16.32458557 41.82496651 16.32458557 41.82496651 15.22106934 41.82572937 C13.69796998 41.82339112 12.17486661 41.8136771 10.65185547 41.79711914 C8.32093747 41.77352291 5.99116337 41.77655998 3.66015625 41.78320312 C2.17968068 41.77762621 0.69920993 41.77051624 -0.78125 41.76171875 C-1.4781897 41.76263016 -2.17512939 41.76354156 -2.89318848 41.76448059 C-6.54183425 41.71103826 -8.06562115 41.54219007 -11.1875 39.4609375 C-11.44627105 36.87322697 -11.51431261 34.54408532 -11.4375 31.9609375 C-11.41780151 30.84199097 -11.41780151 30.84199097 -11.39770508 29.70043945 C-11.34618232 27.28640964 -11.26808376 24.8741589 -11.1875 22.4609375 C-11.16671387 21.6364209 -11.14592773 20.8119043 -11.12451172 19.96240234 C-11.05993613 17.52335853 -10.9720776 15.08638635 -10.875 12.6484375 C-10.85276367 11.89046875 -10.83052734 11.1325 -10.80761719 10.3515625 C-10.39219675 2.07309387 -8.2512221 -0.0519265 0 0 Z " fill="#60A2E5" transform="translate(417.1875,168.5390625)"/>
<path d="M0 0 C1 1 1 1 1.09765625 4.59765625 C1.0909822 6.08596867 1.07902183 7.57426432 1.0625 9.0625 C1.05798828 9.82111328 1.05347656 10.57972656 1.04882812 11.36132812 C1.0370068 13.24091871 1.01907078 15.12046899 1 17 C0.21496094 17.02578125 -0.57007813 17.0515625 -1.37890625 17.078125 C-8.02391133 17.43687374 -12.66062672 17.91026728 -18 22 C-22.21899406 27.48469228 -22.16530826 33.45620293 -22.31640625 40.14453125 C-22.33718735 40.91431808 -22.35796844 41.68410492 -22.37937927 42.47721863 C-22.44446049 44.92222667 -22.50356591 47.36733683 -22.5625 49.8125 C-22.60572468 51.47592177 -22.64934021 53.13933344 -22.69335938 54.80273438 C-22.80083048 58.86838671 -22.90021085 62.93412289 -23 67 C-28.94 67 -34.88 67 -41 67 C-41 45.55 -41 24.1 -41 2 C-35.39 2 -29.78 2 -24 2 C-23.67 5.3 -23.34 8.6 -23 12 C-22.030625 10.7625 -21.06125 9.525 -20.0625 8.25 C-14.59076325 2.01553631 -8.28988283 -0.86352946 0 0 Z " fill="#CFF469" transform="translate(375,395)"/>
<path d="M0 0 C0.76479675 0.00809692 1.52959351 0.01619385 2.31756592 0.02453613 C3.13102478 0.01752686 3.94448364 0.01051758 4.78259277 0.0032959 C7.46907783 -0.01429633 10.15450781 -0.00265738 12.84100342 0.01086426 C14.70900678 0.00816969 16.57700877 0.00428756 18.44500732 -0.00073242 C22.35904297 -0.00662912 26.27271336 0.00194098 30.18670654 0.02062988 C35.2041023 0.04341958 40.22064223 0.03029741 45.23800659 0.00634003 C49.09505666 -0.00811333 52.95190378 -0.00351409 56.80895996 0.0068512 C58.65893658 0.00951976 60.50893161 0.00624415 62.35888672 -0.00306702 C64.94456799 -0.01322511 67.52886293 0.00225715 70.11444092 0.02453613 C70.87923767 0.01643921 71.64403442 0.00834229 72.43200684 0 C77.70895171 0.08424578 78.18175553 0.50786637 82.21600342 4.54211426 C82.21600342 8.50211426 82.21600342 12.46211426 82.21600342 16.54211426 C51.85600342 16.54211426 21.49600342 16.54211426 -9.78399658 16.54211426 C-9.78399658 0.1562003 -9.78399658 0.1562003 0 0 Z " fill="#FCFDFE" transform="translate(408.78399658203125,137.4578857421875)"/>
<path d="M0 0 C3.81520039 2.01557757 7.00081488 4.1126956 9 8 C9.65584653 12.96569517 8.91251276 16.34932218 6.26171875 20.48828125 C3.29638673 24.04117132 -0.07117042 24.86731006 -4.5 25.5 C-9.04198663 24.85114477 -10.85780372 23.28834494 -14 20 C-16.2862014 16.05110667 -16.6208832 12.50140319 -16 8 C-11.82006131 1.53776349 -7.87134799 -1.07003427 0 0 Z " fill="#F9FBFE" transform="translate(426,270)"/>
<path d="M0 0 C0.57159848 11.89771646 0.57159848 11.89771646 -3 17 C-7.43384687 21.01817373 -11.77211363 21.36240022 -17.546875 21.26953125 C-20 21 -20 21 -23.125 19.5 C-25.24077977 16.6789603 -25.5943122 14.60609622 -25.6640625 11.09765625 C-24.59228724 7.71210734 -22.74571124 6.19875681 -20 4 C-17.32709983 3.1984122 -15.03320188 2.64583442 -12.3125 2.25 C-8.17499045 1.56370194 -4.07915085 0 0 0 Z " fill="#60A3E2" transform="translate(610,431)"/>
<path d="M0 0 C0.86041662 12.88712896 0.86041662 12.88712896 -2.1875 16.6875 C-6.76228432 20.44898933 -10.25915632 21.35587293 -16.0703125 21.19140625 C-18.69492841 20.93106985 -20.69956464 20.28553741 -23 19 C-25.50031654 15.24952518 -25.53603554 13.44143734 -25 9 C-21.03334632 3.75608383 -16.95608323 2.8201159 -10.8125 1.6875 C-9.99330078 1.51927734 -9.17410156 1.35105469 -8.33007812 1.17773438 C-2.48947704 0 -2.48947704 0 0 0 Z " fill="#579DE1" transform="translate(302,431)"/>
<path d="M0 0 C3 1.9375 3 1.9375 5 5 C5.6956407 8.47250151 5.73460092 11.53200029 5 15 C2.5625 18.0625 2.5625 18.0625 0 20 C-0.33 20.33 -0.66 20.66 -1 21 C-5.70171791 21.4781408 -8.67405856 21.72931068 -12.4375 18.6875 C-15.46303377 15.51437922 -15.91256409 13.94430783 -16.3125 9.625 C-15.94501986 5.36223043 -15.03128361 3.94708129 -12 1 C-8.36450268 -1.85646218 -4.22920495 -1.25619949 0 0 Z " fill="#FAFCFE" transform="translate(566,281)"/>
<path d="M0 0 C4.42577463 2.34837021 6.14313048 5.40669118 8 10 C8 10.99 8 11.98 8 13 C-1.57 13 -11.14 13 -21 13 C-19.87068424 7.35342122 -19.87068424 7.35342122 -17.0625 4.25 C-16.53785156 3.65703125 -16.01320313 3.0640625 -15.47265625 2.453125 C-11.45086598 -1.51532588 -5.24790249 -0.49812978 0 0 Z " fill="#5FA2E2" transform="translate(533,409)"/>
</svg>
