<?xml version="1.0" encoding="UTF-8"?>
<svg version="1.1" xmlns="http://www.w3.org/2000/svg" width="573" height="158">
<path d="M0 0 C189.09 0 378.18 0 573 0 C573 52.14 573 104.28 573 158 C383.91 158 194.82 158 0 158 C0 105.86 0 53.72 0 0 Z " fill="#6366f1" transform="translate(0,0)"/>
<path d="M0 0 C0.87983551 -0.0049649 1.75967102 -0.00992981 2.66616821 -0.01504517 C5.5856402 -0.02968612 8.50505783 -0.0364723 11.42456055 -0.04199219 C13.44996645 -0.04774242 15.47537234 -0.05350017 17.5007782 -0.05926514 C21.75198623 -0.06978088 26.00317532 -0.07561967 30.25439453 -0.07910156 C35.70202812 -0.08458494 41.14941159 -0.10860728 46.59696674 -0.13707352 C50.78255443 -0.15569765 54.96808188 -0.1609054 59.1537075 -0.16243744 C61.16196242 -0.16546542 63.17021624 -0.17349884 65.17843056 -0.18662262 C67.98893875 -0.20367694 70.79883606 -0.20180424 73.609375 -0.1953125 C74.43917374 -0.20452728 75.26897247 -0.21374207 76.12391663 -0.22323608 C80.71159768 -0.19004074 83.83047602 0.09851977 87.4987793 3.16113281 C89.92440693 6.48994981 89.76887311 9.73255872 89.80517578 13.76220703 C89.8134993 14.41639618 89.82182281 15.07058533 89.83039856 15.74459839 C89.85444326 17.90173336 89.86326359 20.05856565 89.86987305 22.21582031 C89.8788435 23.72030729 89.88796543 25.22479338 89.89723206 26.72927856 C89.91370948 29.88155279 89.92141989 33.03372095 89.92431641 36.18603516 C89.92969954 40.21688395 89.96738042 44.24673026 90.01306057 48.27729607 C90.04286606 51.38464968 90.0500407 54.49176286 90.05104256 57.59924698 C90.05523788 59.08477496 90.06764473 60.57030411 90.0885601 62.05569077 C90.25790309 75.12201118 90.25790309 75.12201118 87.08886719 79.05615234 C82.75958009 82.57459078 79.38962837 82.32078909 73.99755859 82.33813477 C73.11772308 82.34470596 72.23788757 82.35127716 71.33139038 82.35804749 C68.41192546 82.3778016 65.49251202 82.38944756 62.57299805 82.39941406 C61.07916564 82.40552735 61.07916564 82.40552735 59.5551548 82.41176414 C54.28449332 82.43263354 49.01385795 82.4469317 43.74316406 82.45629883 C38.29545588 82.46736728 32.84815571 82.50176983 27.40059185 82.54147053 C23.2150038 82.56759874 19.02951353 82.57598728 14.84385109 82.57958031 C12.83558203 82.5844558 10.82731761 82.59609707 8.81912804 82.6146183 C6.00848307 82.63892976 3.19890121 82.63805939 0.38818359 82.63110352 C-0.44161514 82.64391357 -1.27141388 82.65672363 -2.12635803 82.66992188 C-6.07615507 82.6342876 -8.05223182 82.43742962 -11.49430847 80.31925964 C-14.89575564 76.661524 -14.63897861 73.36581648 -14.67822266 68.56591797 C-14.68479385 67.90051498 -14.69136505 67.235112 -14.69813538 66.54954529 C-14.71782988 64.34976077 -14.72952126 62.15004433 -14.73950195 59.95019531 C-14.74357748 59.19794048 -14.74765301 58.44568565 -14.75185204 57.67063522 C-14.77269469 53.69025702 -14.78700513 49.70991312 -14.79638672 45.72949219 C-14.80745768 41.62135141 -14.84187001 37.5137513 -14.88155842 33.40580177 C-14.90771427 30.24361165 -14.91607751 27.08155072 -14.9196682 23.91926193 C-14.92453555 22.40500607 -14.93615391 20.89075602 -14.95470619 19.37660599 C-14.97908133 17.2556807 -14.97813689 15.13615948 -14.97119141 13.01513672 C-14.97705765 11.8095108 -14.98292389 10.60388489 -14.9889679 9.36172485 C-14.40587564 5.53547951 -13.18587241 3.89510318 -10.5012207 1.16113281 C-7.22598648 -0.4764843 -3.6001433 0.00481468 0 0 Z " fill="#FDFDFE" transform="translate(109.501220703125,41.8388671875)"/>
<path d="M0 0 C0.97590088 -0.00563965 1.95180176 -0.0112793 2.95727539 -0.01708984 C4.56880493 -0.01101715 4.56880493 -0.01101715 6.21289062 -0.00482178 C7.34138428 -0.00832642 8.46987793 -0.01183105 9.63256836 -0.01544189 C13.37815427 -0.02427403 17.12355266 -0.01840475 20.86914062 -0.01165771 C23.46223995 -0.01300394 26.05533904 -0.01494411 28.6484375 -0.01745605 C34.08921945 -0.02040933 39.52993037 -0.01629272 44.97070312 -0.0067749 C51.26573789 0.00410997 57.56064312 0.0005845 63.85567474 -0.01042771 C69.90518489 -0.02058786 75.95463152 -0.01952445 82.00415039 -0.01366425 C84.58146177 -0.01232622 87.15877644 -0.01398077 89.73608398 -0.01862335 C93.33260975 -0.02367948 96.92888371 -0.01599105 100.52539062 -0.00482178 C101.59974365 -0.00887024 102.67409668 -0.0129187 103.78100586 -0.01708984 C104.75690674 -0.0114502 105.73280762 -0.00581055 106.73828125 0 C107.58926392 0.00075405 108.44024658 0.0015081 109.3170166 0.002285 C111.36914062 0.25396729 111.36914062 0.25396729 113.36914062 2.25396729 C113.56800187 5.22603723 113.64178704 8.1049576 113.62792969 11.07818604 C113.63143433 11.99210114 113.63493896 12.90601624 113.6385498 13.84762573 C113.64737712 16.87898274 113.64151443 19.91010776 113.63476562 22.94146729 C113.63611199 25.04132126 113.63805228 27.14117493 113.64056396 29.24102783 C113.64351659 33.64608726 113.63921314 38.05106569 113.62988281 42.45611572 C113.61848823 48.1125076 113.62504696 53.7687097 113.63702774 59.4250946 C113.64424261 63.76240478 113.64196013 68.09966969 113.63677216 72.4369812 C113.63543462 74.52306134 113.63708697 76.60914555 113.64173126 78.69522095 C113.64679035 81.60684142 113.63909494 84.51815129 113.62792969 87.42974854 C113.63197815 88.29838531 113.63602661 89.16702209 113.64019775 90.0619812 C113.59766835 96.02543956 113.59766835 96.02543956 111.36914062 98.25396729 C109.3170166 98.50564957 109.3170166 98.50564957 106.73828125 98.50793457 C105.76238037 98.51357422 104.78647949 98.51921387 103.78100586 98.52502441 C102.70665283 98.52097595 101.6322998 98.51692749 100.52539062 98.51275635 C99.39689697 98.51626099 98.26840332 98.51976562 97.10571289 98.52337646 C93.36012698 98.5322086 89.61472859 98.52633932 85.86914062 98.51959229 C83.2760413 98.52093851 80.68294221 98.52287868 78.08984375 98.52539062 C72.6490618 98.5283439 67.20835088 98.52422729 61.76757812 98.51470947 C55.47254336 98.5038246 49.17763813 98.50735007 42.88260651 98.51836228 C36.83309636 98.52852243 30.78364973 98.52745902 24.73413086 98.52159882 C22.15681948 98.52026079 19.57950481 98.52191534 17.00219727 98.52655792 C13.4056715 98.53161405 9.80939754 98.52392562 6.21289062 98.51275635 C4.60136108 98.51882904 4.60136108 98.51882904 2.95727539 98.52502441 C1.98137451 98.51938477 1.00547363 98.51374512 0 98.50793457 C-0.85098267 98.50718052 -1.70196533 98.50642647 -2.57873535 98.50564957 C-4.63085938 98.25396729 -4.63085938 98.25396729 -6.63085938 96.25396729 C-6.82972062 93.28189734 -6.90350579 90.40297697 -6.88964844 87.42974854 C-6.89315308 86.51583344 -6.89665771 85.60191833 -6.90026855 84.66030884 C-6.90909587 81.62895183 -6.90323318 78.59782681 -6.89648438 75.56646729 C-6.89783074 73.46661331 -6.89977103 71.36675964 -6.90228271 69.26690674 C-6.90523534 64.86184731 -6.90093189 60.45686888 -6.89160156 56.05181885 C-6.88020698 50.39542697 -6.88676571 44.73922487 -6.89874649 39.08283997 C-6.90596136 34.74552979 -6.90367888 30.40826488 -6.89849091 26.07095337 C-6.89715337 23.98487323 -6.89880572 21.89878902 -6.90345001 19.81271362 C-6.9085091 16.90109315 -6.90081369 13.98978328 -6.88964844 11.07818604 C-6.8936969 10.20954926 -6.89774536 9.34091248 -6.9019165 8.44595337 C-6.85788948 2.27249911 -6.41153902 0.00568123 0 0 Z M2.36914062 12.25396729 C0.94248046 15.10728761 1.2260637 17.54585002 1.20800781 20.73565674 C1.20304291 21.4009137 1.198078 22.06617065 1.19296265 22.75158691 C1.17833441 24.95681792 1.17153736 27.16197694 1.16601562 29.36724854 C1.16026396 30.899409 1.15450622 32.43156944 1.14874268 33.96372986 C1.13823029 37.17921281 1.13238944 40.39467074 1.12890625 43.61016846 C1.12342621 47.72608619 1.09940996 51.84167232 1.0709343 55.95748615 C1.05228811 59.12396706 1.04710123 62.29036848 1.04557037 65.45689964 C1.0425469 66.97392779 1.03452864 68.49095463 1.02138519 70.00792885 C1.00428543 72.13357178 1.00621418 74.25840999 1.01269531 76.38409424 C1.00904968 77.59273636 1.00540405 78.80137848 1.00164795 80.04664612 C1.40769319 83.59043783 2.22659417 85.42897153 4.36914062 88.25396729 C8.24183614 90.8357643 11.47488431 90.55676867 15.96801758 90.56036377 C17.28558044 90.57284904 17.28558044 90.57284904 18.62976074 90.58558655 C21.53902598 90.60971877 24.4480671 90.61846303 27.35742188 90.62506104 C29.37900358 90.63402562 31.4005846 90.64314743 33.42216492 90.65242004 C37.66321425 90.66892185 41.90418453 90.6766122 46.14526367 90.67950439 C51.5761636 90.68488635 57.00631908 90.7225538 62.43700886 90.76824856 C66.61407676 90.79801321 70.79096538 90.80522784 74.96813011 90.80623055 C76.96999709 90.81043478 78.9718645 90.82287721 80.97362709 90.84374809 C83.77699866 90.87064716 86.57864474 90.86584129 89.38208008 90.85333252 C90.20671249 90.86816681 91.03134491 90.8830011 91.88096619 90.89828491 C96.01796925 90.84580026 98.59436758 90.4857707 101.86833191 87.84150696 C105.58132911 83.99973869 105.50007878 82.11979411 105.53027344 76.86407471 C105.53523834 76.20857132 105.54020325 75.55306793 105.5453186 74.87770081 C105.55994607 72.70493526 105.56674377 70.53224277 105.57226562 68.35943604 C105.57801738 66.84969582 105.58377511 65.33995563 105.58953857 63.83021545 C105.60005076 60.66181091 105.60589173 57.49343174 105.609375 54.32501221 C105.61485484 50.26962646 105.63887072 46.21457729 105.66734695 42.15929699 C105.68599448 39.03913909 105.69118009 35.91906184 105.69271088 32.79885292 C105.69573407 31.3041532 105.7037514 29.80945478 105.71689606 28.3148098 C105.7339986 26.22029618 105.73206643 24.12659905 105.72558594 22.03204346 C105.72923157 20.84116623 105.7328772 19.650289 105.7366333 18.42332458 C105.32579583 14.88014991 104.56268284 13.04886026 102.36914062 10.25396729 C98.71128698 7.37055518 94.08514257 7.958579 89.64086914 7.96343994 C88.76074158 7.95672272 87.88061401 7.95000549 86.97381592 7.94308472 C84.06516878 7.92409081 81.15675216 7.92017999 78.24804688 7.91802979 C76.2254985 7.91160345 74.20295107 7.90487521 72.18040466 7.89785767 C67.94113001 7.88588186 63.70193687 7.88217722 59.46264648 7.88336182 C54.03065857 7.88356516 48.59919291 7.856248 43.16732883 7.8218174 C38.99030658 7.79958149 34.81341075 7.79552324 30.63633537 7.79658127 C28.6336582 7.7942209 26.63097776 7.78537291 24.62835884 7.76991653 C21.82746891 7.75032113 19.02771484 7.7560689 16.22680664 7.76812744 C14.98682167 7.75126892 14.98682167 7.75126892 13.7217865 7.73406982 C8.68288926 7.78919796 6.01778305 8.44960178 2.36914062 12.25396729 Z " fill="#6366f1" transform="translate(93.630859375,33.74603271484375)"/>
<path d="M0 0 C7.59 0 15.18 0 23 0 C22.67 1.65 22.34 3.3 22 5 C21.93540958 6.76977761 21.91388935 8.54170152 21.9375 10.3125 C21.94652344 11.19550781 21.95554688 12.07851562 21.96484375 12.98828125 C21.97644531 13.65214844 21.98804688 14.31601563 22 15 C22.66 15 23.32 15 24 15 C24.495 8.565 24.495 8.565 25 2 C25.66 2 26.32 2 27 2 C28.56439514 6.88873482 29 9.60722586 29 15 C33.29 15 37.58 15 42 15 C42 16.98 42 18.96 42 21 C41.44570312 21.25394531 40.89140625 21.50789063 40.3203125 21.76953125 C39.59585938 22.11371094 38.87140625 22.45789063 38.125 22.8125 C37.40570313 23.14894531 36.68640625 23.48539063 35.9453125 23.83203125 C33.69457194 24.99467097 33.69457194 24.99467097 32 28 C29.04935852 28.2208564 26.31631769 28.28060989 23.375 28.1875 C22.17230469 28.16719727 22.17230469 28.16719727 20.9453125 28.14648438 C18.96325622 28.11109051 16.98154449 28.05728234 15 28 C15.03996094 29.10859375 15.07992187 30.2171875 15.12109375 31.359375 C15 35 15 35 13.0625 37.25 C12.381875 37.8275 11.70125 38.405 11 39 C10.67 39.99 10.34 40.98 10 42 C8.43883181 42.33951619 6.87598662 42.67132544 5.3125 43 C4.44238281 43.185625 3.57226562 43.37125 2.67578125 43.5625 C0.06287036 43.98972047 -2.35813038 44.07616201 -5 44 C-5 43.01 -5 42.02 -5 41 C-5.94875 40.7525 -6.8975 40.505 -7.875 40.25 C-11 39 -11 39 -12.15625 37.25 C-13.11259474 34.69974735 -13.41088145 32.46216835 -13.625 29.75 C-13.69976562 28.85796875 -13.77453125 27.9659375 -13.8515625 27.046875 C-13.90054688 26.37140625 -13.94953125 25.6959375 -14 25 C-13.01 24.67 -12.02 24.34 -11 24 C-9.68964993 20.82757352 -9 18.44118336 -9 15 C-5.66696609 12.50022457 -4.26696398 12 0 12 C0 8.04 0 4.08 0 0 Z " fill="#6366f1" transform="translate(128,61)"/>
<path d="M0 0 C0.5775 0.515625 1.155 1.03125 1.75 1.5625 C1.75 2.2225 1.75 2.8825 1.75 3.5625 C3.07 3.8925 4.39 4.2225 5.75 4.5625 C6.0265289 6.64247826 6.27030075 8.7268308 6.5 10.8125 C6.63921875 11.97265625 6.7784375 13.1328125 6.921875 14.328125 C6.75 17.5625 6.75 17.5625 4.828125 19.796875 C4.14234375 20.37953125 3.4565625 20.9621875 2.75 21.5625 C2.42 22.5525 2.09 23.5425 1.75 24.5625 C0.18883181 24.90201619 -1.37401338 25.23382544 -2.9375 25.5625 C-3.80761719 25.748125 -4.67773438 25.93375 -5.57421875 26.125 C-8.18712964 26.55222047 -10.60813038 26.63866201 -13.25 26.5625 C-13.25 25.5725 -13.25 24.5825 -13.25 23.5625 C-14.19875 23.315 -15.1475 23.0675 -16.125 22.8125 C-19.25 21.5625 -19.25 21.5625 -20.40625 19.8125 C-21.36259474 17.26224735 -21.66088145 15.02466835 -21.875 12.3125 C-21.94976562 11.42046875 -22.02453125 10.5284375 -22.1015625 9.609375 C-22.15054688 8.93390625 -22.19953125 8.2584375 -22.25 7.5625 C-21.26 7.2325 -20.27 6.9025 -19.25 6.5625 C-17.87665383 4.27358972 -17.09749184 2.10497553 -16.25 -0.4375 C-14.66913952 -0.80254603 -13.08516093 -1.15410506 -11.5 -1.5 C-10.61828125 -1.69722656 -9.7365625 -1.89445312 -8.828125 -2.09765625 C-5.14563898 -2.58307486 -3.10362639 -1.98287242 0 0 Z " fill="#6366f1" transform="translate(136.25,78.4375)"/>
<path d="M0 0 C10.23 0 20.46 0 31 0 C31 7.87244284 31 7.87244284 28.21875 11.234375 C27.62723145 11.96865723 27.03571289 12.70293945 26.42626953 13.45947266 C25.47276611 14.59328369 25.47276611 14.59328369 24.5 15.75 C23.21485563 17.33489218 21.93099732 18.92082807 20.6484375 20.5078125 C20.02291992 21.27254883 19.39740234 22.03728516 18.75292969 22.82519531 C15.31883932 27.08576314 12.18033076 31.54753693 9 36 C16.59 36.33 24.18 36.66 32 37 C32 38.98 32 40.96 32 43 C21.44 43 10.88 43 0 43 C0 36.76551272 0.02087109 36.24885504 3.625 31.8125 C4.83349609 30.28302734 4.83349609 30.28302734 6.06640625 28.72265625 C6.52418457 28.14789551 6.98196289 27.57313477 7.45361328 26.98095703 C10.58200722 22.97341228 13.55744481 18.85028692 16.5625 14.75 C18.686875 11.8625 20.81125 8.975 23 6 C15.41 6 7.82 6 0 6 C0 4.02 0 2.04 0 0 Z " fill="#F2F5FA" transform="translate(418,54)"/>
<path d="M0 0 C1.65 0 3.3 0 5 0 C5.33 0.99 5.66 1.98 6 3 C6.474375 2.505 6.94875 2.01 7.4375 1.5 C11.19849194 -0.70155626 14.74002982 -0.74256361 19 0 C21.5625 2 21.5625 2 23 4 C23.639375 3.34 24.27875 2.68 24.9375 2 C29.01482767 -0.6627446 32.24721133 -0.87823269 37 0 C39.87029869 1.79393668 41.49131638 2.98263276 43 6 C43.08449628 7.7404417 43.10723024 9.48409722 43.09765625 11.2265625 C43.09443359 12.2578125 43.09121094 13.2890625 43.08789062 14.3515625 C43.07532227 15.97191406 43.07532227 15.97191406 43.0625 17.625 C43.05798828 18.71296875 43.05347656 19.8009375 43.04882812 20.921875 C43.03701776 23.61463789 43.02054778 26.30729188 43 29 C41.35 29 39.7 29 38 29 C37.970271 28.11477661 37.970271 28.11477661 37.93994141 27.21166992 C37.84465341 24.53649904 37.73499061 21.86210502 37.625 19.1875 C37.5940625 18.25873047 37.563125 17.32996094 37.53125 16.37304688 C37.47324219 15.0340332 37.47324219 15.0340332 37.4140625 13.66796875 C37.3826416 12.84578857 37.3512207 12.0236084 37.31884766 11.17651367 C37.11626378 8.71047063 37.11626378 8.71047063 35 6 C31.54230809 5.41657647 31.54230809 5.41657647 28 6 C25.85398122 7.81163911 25.10192472 9.34322781 24.67260742 12.10961914 C24.47983889 14.65850423 24.37855163 17.19474539 24.3125 19.75 C24.27833984 20.63816406 24.24417969 21.52632812 24.20898438 22.44140625 C24.12671286 24.62747803 24.05749828 26.81315951 24 29 C22.35 29 20.7 29 19 29 C18.98018066 28.37432129 18.96036133 27.74864258 18.93994141 27.10400391 C18.84485774 24.27723481 18.73511254 21.45122185 18.625 18.625 C18.5940625 17.64015625 18.563125 16.6553125 18.53125 15.640625 C18.49257813 14.69960937 18.45390625 13.75859375 18.4140625 12.7890625 C18.36693115 11.48509521 18.36693115 11.48509521 18.31884766 10.15478516 C18.18770567 7.79038206 18.18770567 7.79038206 16 6 C11.91078861 5.51174173 11.91078861 5.51174173 8.34057617 7.2277832 C6.63424396 9.48352269 6.57777888 10.85774324 6.48828125 13.66796875 C6.45283203 14.56064453 6.41738281 15.45332031 6.38085938 16.37304688 C6.35830078 17.30181641 6.33574219 18.23058594 6.3125 19.1875 C6.27833984 20.12787109 6.24417969 21.06824219 6.20898438 22.03710938 C6.12651782 24.35795393 6.05736597 26.67842148 6 29 C4.02 29 2.04 29 0 29 C0 19.43 0 9.86 0 0 Z " fill="#F7F9FC" transform="translate(304,68)"/>
<path d="M0 0 C4.03297602 2.23115776 6.53820819 4.61462458 8 9 C8 11.64 8 14.28 8 17 C0.74 17 -6.52 17 -14 17 C-12.55339859 21.74965302 -12.55339859 21.74965302 -10.375 23.375 C-5.97321184 24.53336531 -1.64309711 23.69831627 2.5 21.9375 C2.995 21.628125 3.49 21.31875 4 21 C4.66 22.32 5.32 23.64 6 25 C3.31558336 27.94007536 1.32053904 28.86661222 -2.70703125 29.2734375 C-12.12685003 29.58150705 -12.12685003 29.58150705 -15.625 26.8125 C-19.77660948 21.89612036 -20.5097422 17.84825209 -20.38671875 11.5078125 C-19.77308824 7.52851159 -17.93188077 4.71584745 -15 2 C-10.36264217 -0.91434802 -5.28920148 -0.87283015 0 0 Z " fill="#F5F7FB" transform="translate(374,68)"/>
<path d="M0 0 C3.07365786 1.80803404 4.43019732 2.86039464 6 6 C6.08449628 7.7404417 6.10723024 9.48409722 6.09765625 11.2265625 C6.09443359 12.2578125 6.09121094 13.2890625 6.08789062 14.3515625 C6.07951172 15.43179688 6.07113281 16.51203125 6.0625 17.625 C6.05798828 18.71296875 6.05347656 19.8009375 6.04882812 20.921875 C6.03701776 23.61463789 6.02054778 26.30729188 6 29 C4.35 29 2.7 29 1 29 C0.67 28.01 0.34 27.02 0 26 C-0.57621094 26.72703125 -0.57621094 26.72703125 -1.1640625 27.46875 C-4.25328071 30.04528945 -7.45196698 29.52689633 -11.32421875 29.4140625 C-14 29 -14 29 -17.1875 26.875 C-19.34663968 23.45015775 -19.82630866 21.96628159 -19 18 C-16.36531552 14.77983008 -13.86201602 12.53101349 -10 11 C-7.203125 10.8046875 -7.203125 10.8046875 -4.25 10.875 C-3.26515625 10.89304687 -2.2803125 10.91109375 -1.265625 10.9296875 C-0.14414062 10.96449219 -0.14414062 10.96449219 1 11 C-0.11854586 7.27385847 -0.11854586 7.27385847 -3 5 C-7.55547083 4.74214316 -10.8780636 5.00148538 -15 7 C-15.66 5.68 -16.32 4.36 -17 3 C-11.50272545 -0.80969211 -6.50690992 -0.83698841 0 0 Z " fill="#F5F8FB" transform="translate(268,68)"/>
<path d="M0 0 C0.99902344 -0.0309375 1.99804688 -0.061875 3.02734375 -0.09375 C6.21704743 0.53023322 8.49094652 1.41203666 10.91333008 3.63232422 C13.49214538 7.82351544 12.65357629 13.07267274 12.4375 17.8125 C12.41042969 18.93462891 12.38335937 20.05675781 12.35546875 21.21289062 C12.28489001 23.97722459 12.18634488 26.73762415 12.0625 29.5 C10.4125 29.5 8.7625 29.5 7.0625 29.5 C6.7325 28.84 6.4025 28.18 6.0625 27.5 C5.0725 28.16 4.0825 28.82 3.0625 29.5 C-1.74485077 30.13119415 -6.33258279 30.39576774 -10.625 28 C-12.47350103 24.47904565 -12.96754026 21.31720802 -11.9375 17.5 C-9.75079568 14.77995316 -7.05695925 13.05972963 -3.9375 11.5 C-2.06370395 11.42966231 -0.18748898 11.4156978 1.6875 11.4375 C3.19183594 11.45103516 3.19183594 11.45103516 4.7265625 11.46484375 C5.49742187 11.47644531 6.26828125 11.48804687 7.0625 11.5 C6.4025 9.85 5.7425 8.2 5.0625 6.5 C-0.70206112 5.37967402 -0.70206112 5.37967402 -5.9375 7.5 C-6.9275 7.5 -7.9175 7.5 -8.9375 7.5 C-8.9375 6.84 -8.9375 6.18 -8.9375 5.5 C-9.5975 5.5 -10.2575 5.5 -10.9375 5.5 C-10.9375 4.84 -10.9375 4.18 -10.9375 3.5 C-7.29980402 0.77673402 -4.50590173 0.04639281 0 0 Z " fill="#F7F9FB" transform="translate(399.9375,67.5)"/>
<path d="M0 0 C8.91 0 17.82 0 27 0 C27 1.98 27 3.96 27 6 C20.07 6 13.14 6 6 6 C6 10.29 6 14.58 6 19 C12.6 19 19.2 19 26 19 C26 20.65 26 22.3 26 24 C19.4 24 12.8 24 6 24 C6 30.27 6 36.54 6 43 C4.02 43 2.04 43 0 43 C0 28.81 0 14.62 0 0 Z " fill="#F4F6FA" transform="translate(217,54)"/>
<path d="M0 0 C1.98 0 3.96 0 6 0 C7.17495143 2.93425371 8.33850852 5.87289513 9.5 8.8125 C9.83386719 9.64587891 10.16773438 10.47925781 10.51171875 11.33789062 C10.82753906 12.14033203 11.14335937 12.94277344 11.46875 13.76953125 C11.76201172 14.50792236 12.05527344 15.24631348 12.35742188 16.00708008 C13 18 13 18 13 21 C13.66 21 14.32 21 15 21 C15.15275391 20.01966797 15.15275391 20.01966797 15.30859375 19.01953125 C16.2079296 15.09192327 17.61632302 11.44219151 19.0625 7.6875 C19.34416016 6.94693359 19.62582031 6.20636719 19.91601562 5.44335938 C20.60718575 3.62757345 21.30311689 1.81360101 22 0 C23.98 0 25.96 0 28 0 C25.68310355 7.23247406 23.01661135 14.29967779 20.23876953 21.3671875 C19.49665821 23.2585168 18.76188973 25.15259674 18.02734375 27.046875 C17.55425781 28.2534375 17.08117187 29.46 16.59375 30.703125 C16.16771484 31.79270508 15.74167969 32.88228516 15.30273438 34.00488281 C14.05532775 36.87279595 12.79953181 39.4412547 11 42 C8.24921116 42.91692961 6.64051087 43.10886083 3.8125 43.0625 C2.554375 43.041875 1.29625 43.02125 0 43 C0 41.35 0 39.7 0 38 C1.093125 37.979375 2.18625 37.95875 3.3125 37.9375 C7.28405649 37.38335295 7.28405649 37.38335295 9 33.75 C10.44210307 28.34211348 9.07205605 24.84524935 6.93359375 19.8046875 C6.53076172 18.84175781 6.12792969 17.87882812 5.71289062 16.88671875 C4.85923087 14.87087901 4.00506012 12.85525559 3.15039062 10.83984375 C2.54807617 9.39931641 2.54807617 9.39931641 1.93359375 7.9296875 C1.56290771 7.05554199 1.19222168 6.18139648 0.81030273 5.28076172 C0 3 0 3 0 0 Z " fill="#F5F8FB" transform="translate(453,68)"/>
<path d="M0 0 C0 1.65 0 3.3 0 5 C0.66 5 1.32 5 2 5 C2 6.32 2 7.64 2 9 C1.34 9 0.68 9 0 9 C0 10.65 0 12.3 0 14 C-5.07937242 16.8098656 -8.3809144 17.49963473 -14.0390625 15.92578125 C-16 15 -16 15 -18.125 12.25 C-19.31031179 7.84741333 -18.66443465 4.99330394 -17.25 0.75 C-13.12579179 -5.0238915 -5.32199184 -3.1931951 0 0 Z " fill="#6366f1" transform="translate(178,88)"/>
<path d="M0 0 C0.66 0 1.32 0 2 0 C3.56439514 4.88873482 4 7.60722586 4 13 C8.29 13 12.58 13 17 13 C17 14.98 17 16.96 17 19 C16.44570312 19.25394531 15.89140625 19.50789063 15.3203125 19.76953125 C14.59585938 20.11371094 13.87140625 20.45789063 13.125 20.8125 C12.40570313 21.14894531 11.68640625 21.48539063 10.9453125 21.83203125 C8.69457194 22.99467097 8.69457194 22.99467097 7 26 C4.2114711 26.22107787 1.65346819 26.28107535 -1.125 26.1875 C-2.25615234 26.16719727 -2.25615234 26.16719727 -3.41015625 26.14648438 C-5.27374127 26.11109985 -7.13695978 26.05729167 -9 26 C-9 25.67 -9 25.34 -9 25 C-7.35 25 -5.7 25 -4 25 C-4 20.05 -4 15.1 -4 10 C-3.67 10.99 -3.34 11.98 -3 13 C-2.34 13 -1.68 13 -1 13 C-0.67 8.71 -0.34 4.42 0 0 Z " fill="#6366f1" transform="translate(153,63)"/>
<path d="M0 0 C1.65 0 3.3 0 5 0 C5.33 0.99 5.66 1.98 6 3 C6.53625 2.505 7.0725 2.01 7.625 1.5 C10.59358445 -0.37489544 12.55312427 -0.23501425 16 0 C16 1.98 16 3.96 16 6 C14.906875 6.0825 13.81375 6.165 12.6875 6.25 C9.10769545 6.66256431 9.10769545 6.66256431 7.3125 8.46875 C5.33276086 12.28681834 5.4285599 16.0055238 5.3125 20.25 C5.27833984 21.09046875 5.24417969 21.9309375 5.20898438 22.796875 C5.12676432 24.86412204 5.06169843 26.93203874 5 29 C3.35 29 1.7 29 0 29 C0 19.43 0 9.86 0 0 Z " fill="#FAFBFD" transform="translate(282,68)"/>
<path d="M0 0 C2.97 0 5.94 0 9 0 C9.71413279 8.02124152 10.14525497 15.94641862 10 24 C8.68 24 7.36 24 6 24 C5.73445312 23.30132812 5.46890625 22.60265625 5.1953125 21.8828125 C4.84210938 20.97273438 4.48890625 20.06265625 4.125 19.125 C3.77695313 18.22007813 3.42890625 17.31515625 3.0703125 16.3828125 C2.11469105 13.87782993 2.11469105 13.87782993 0 12 C-0.1953125 9.1796875 -0.1953125 9.1796875 -0.125 5.875 C-0.10695312 4.77929688 -0.08890625 3.68359375 -0.0703125 2.5546875 C-0.04710937 1.71164063 -0.02390625 0.86859375 0 0 Z " fill="#FCFCFE" transform="translate(139,64)"/>
<path d="M0 0 C1.875 1.0625 1.875 1.0625 3 3 C3.4375 6.5 3.4375 6.5 3 10 C1.4375 12 1.4375 12 -1 13 C-4.625 12.875 -4.625 12.875 -8 12 C-10 9 -10 9 -9.8125 5.4375 C-8.46874872 -0.24760157 -5.31129528 -0.55325992 0 0 Z " fill="#FBFBFE" transform="translate(132,84)"/>
<path d="M0 0 C-0.58981233 6.25201072 -0.58981233 6.25201072 -2.0625 8.9375 C-5.36385818 10.74792223 -8.27884259 10.29532995 -12 10 C-14 8 -14 8 -14.4375 5.5625 C-14 3 -14 3 -12.0625 1.1875 C-7.96679682 -0.4006298 -4.33869838 -0.25521755 0 0 Z " fill="#6366f1" transform="translate(407,83)"/>
<path d="M0 0 C-0.48165869 6.38197767 -0.48165869 6.38197767 -2.625 8.9375 C-5.89304558 10.39952039 -8.46377389 10.32742834 -12 10 C-14 8 -14 8 -14.4375 5.5625 C-14 3 -14 3 -12.0625 1.1875 C-7.96679682 -0.4006298 -4.33869838 -0.25521755 0 0 Z " fill="#6366f1" transform="translate(269,83)"/>
<path d="M0 0 C2.4375 1.75 2.4375 1.75 4 4 C4 5.32 4 6.64 4 8 C-1.28 8 -6.56 8 -12 8 C-11 3 -11 3 -9.375 1.1875 C-6.02959229 -0.48520386 -3.69013497 -0.46126687 0 0 Z " fill="#6366f1" transform="translate(372,72)"/>
<path d="M0 0 C3.29714793 0.32971479 4.6226839 0.6226839 7 3 C6.67028521 6.29714793 6.3773161 7.6226839 4 10 C-0.55555556 9.44444444 -0.55555556 9.44444444 -2 8 C-2.1875 5.0625 -2.1875 5.0625 -2 2 C-1.34 1.34 -0.68 0.68 0 0 Z " fill="#F6F6FE" transform="translate(167,90)"/>
<path d="M0 0 C0.33 0 0.66 0 1 0 C1 1.98 1 3.96 1 6 C6.28 6 11.56 6 17 6 C17 6.33 17 6.66 17 7 C14.36 7 11.72 7 9 7 C9 8.98 9 10.96 9 13 C3.62337662 13.47792208 3.62337662 13.47792208 1.125 11.5625 C-0.5494151 7.74855449 -0.23678107 4.10420515 0 0 Z " fill="#6366f1" transform="translate(142,83)"/>
<path d="M0 0 C4.20218005 1.58572832 6.62402138 3.17203445 9 7 C8.67 7.66 8.34 8.32 8 9 C7.01 8.67 6.02 8.34 5 8 C5 7.34 5 6.68 5 6 C0.34844978 3.5080981 -2.98539975 2.8140605 -8.25 3.4375 C-9.14203125 3.53933594 -10.0340625 3.64117187 -10.953125 3.74609375 C-11.96632813 3.87177734 -11.96632813 3.87177734 -13 4 C-9.02612346 -0.15450729 -5.68218293 -0.59255539 0 0 Z " fill="#6366f1" transform="translate(133,74)"/>
<path d="M0 0 C1.65 0 3.3 0 5 0 C5 3.3 5 6.6 5 10 C3.35 9.67 1.7 9.34 0 9 C0 6.03 0 3.06 0 0 Z " fill="#FCFCFE" transform="translate(131,64)"/>
<path d="M0 0 C-0.99 0.33 -1.98 0.66 -3 1 C-3 1.66 -3 2.32 -3 3 C-6.3 3.33 -9.6 3.66 -13 4 C-8.42244564 -0.57755436 -6.21132993 -0.10018274 0 0 Z " fill="#F4F4FE" transform="translate(133,74)"/>
<path d="M0 0 C1.32 0 2.64 0 4 0 C4 1.65 4 3.3 4 5 C2.68 5 1.36 5 0 5 C0 3.35 0 1.7 0 0 Z " fill="#FFFFFF" transform="translate(146,90)"/>
<path d="M0 0 C1.3303125 0.4021875 1.3303125 0.4021875 2.6875 0.8125 C-0.81788557 2.77551592 -4.44601728 3.77152388 -8.3125 4.8125 C-4.12788462 -0.23365385 -4.12788462 -0.23365385 0 0 Z " fill="#6366f1" transform="translate(168.3125,83.1875)"/>
</svg>
